# xmcd
#
# Track frame offsets:
#	150
#	15060
#	27151
#	40636
#	62940
#	86491
#	103742
#	120445
#	133424
#	147783
#	159400
#	172009
#	187509
#
# Disc length: 2709 seconds
#
# Revision: 2
# Processed by: cddbd v1.5.2PL0 Copyright (c) Steve Scherf et al.
# Submitted via: EZCDAudioConverter 8.0.3.1
#
DISCID=9b0a930d
DTITLE=Chris Ledoux - The Ultimate Collection
DYEAR=2006
DGENRE=Country
TTITLE0=Chris Ledoux - Cadillac Cowboy
TTITLE1=Chris Ledoux - The Fever
TTITLE2=Chris Ledoux - County Fair
TTITLE3=Chris Ledoux - Tougher Than The Rest
TTITLE4=Chris Ledoux - Stampede
TTITLE5=Chris Ledoux - The Ride
TTITLE6=Chris Ledoux - Five Dollar Fine
TTITLE7=Chris Ledoux - Cadillac Ranch
TTITLE8=Chris Ledoux - Look At You Girl
TTITLE9=Chris Ledoux Feat. Garth Brooks - Whatcha Gonna Do With A Cowboy
TTITLE10=Chris Ledoux - Workin' Man's Dollar
TTITLE11=Chris Ledoux - For Your Love
TTITLE12=Chris Ledoux - Western Skies
EXTD=
EXTT0=
EXTT1=
EXTT2=
EXTT3=
EXTT4=
EXTT5=
EXTT6=
EXTT7=
EXTT8=
EXTT9=
EXTT10=
EXTT11=
EXTT12=
PLAYORDER=
